# xmcd
#
# Track frame offsets: 
#        150
#        14860
#        24125
#        39566
#        57843
#        71074
#        84202
#        100259
#        112641
#        130360
#
# Disc length: 2079 seconds
#
# Revision: 0
# Processed by: cddbd v1.5.2PL0 Copyright (c) Steve Scherf et al.
# Submitted via: ExactAudioCopy v0.99pb4
#
DISCID=78081d0a
DTITLE=James Luther Dickinson - Dinosaurs Run In Circles
DYEAR=2008
DGENRE=
TTITLE0=Early In The Morning
TTITLE1=Coleslaw
TTITLE2=Easy Street
TTITLE3=The Gypsy
TTITLE4=Save The Bones For Henry Jones (Cause He Don't Eat No Meat)
TTITLE5=Who Threw The Whisky In The Well
TTITLE6=It's The Talk Of The Town
TTITLE7=A Chicken Ain't Nothing But A Bird
TTITLE8=Hard Times (No One Knows Better Than I)
TTITLE9=When You Wish Upon A Star
EXTD=
EXTT0=
EXTT1=
EXTT2=
EXTT3=
EXTT4=
EXTT5=
EXTT6=
EXTT7=
EXTT8=
EXTT9=
PLAYORDER=
